<?xml version="1.0" encoding="utf-8"?>
<!DOCTYPE svg PUBLIC "-//W3C//DTD SVG 1.0//EN" "http://www.w3.org/TR/2001/REC-SVG-20010904/DTD/svg10.dtd">
<svg version="1.0" xmlns="http://www.w3.org/2000/svg" width="2048px" height="2048px" viewBox="0 0 2048 2048" preserveAspectRatio="xMidYMid meet">
 <g fill="#e7e6e5">
  <path d="M0 1024 l0 -1024 1024 0 1024 0 0 1024 0 1024 -1024 0 -1024 0 0 -1024z m1055.5 523.5 c23.1 -2 45.3 -5 59 -8 3.3 -0.7 11.6 -2.5 18.5 -4 54 -11.5 118 -38.5 166.5 -70.3 33.3 -21.8 52.9 -37.9 82.5 -67.4 19.9 -19.9 28.8 -29.6 34.5 -37.8 2.2 -3.2 7.6 -10.1 12 -15.5 13.4 -16.3 16 -19.9 21 -29.1 2.6 -4.8 6.4 -11.1 8.5 -13.9 2 -2.8 4.6 -6.8 5.8 -9 1.1 -2.2 4 -6.9 6.4 -10.5 3.8 -5.7 8.8 -15 8.8 -16.5 0 -0.8 6.8 -15.6 8.6 -19 6 -10.7 7.6 -14 10.4 -22.5 1.8 -5.2 3.6 -10.4 4 -11.5 5.7 -13.4 7.1 -16.8 8.8 -22 1.1 -3.3 2.5 -8 3.2 -10.5 0.7 -2.5 1.6 -5.6 2.1 -7 0.4 -1.4 2.2 -8.3 3.9 -15.5 5 -21.2 5.8 -24.7 7.1 -32.2 0.5 -2.9 1.4 -7.9 1.9 -11 1.2 -6.5 2.2 -14.9 4.6 -36.3 2 -17.8 2.3 -61.7 0.6 -77.5 -4 -36.2 -8.7 -61.5 -16.4 -89 -5.1 -18.1 -16.1 -48.6 -22.8 -63.2 -1.7 -3.5 -3 -6.7 -3 -7 0 -0.7 -16.9 -34.5 -18 -35.8 -0.4 -0.5 -2.2 -3.7 -4 -7 -5.1 -9.3 -19.2 -31.1 -29.2 -45.2 -14 -19.7 -26.8 -35 -46.5 -55.8 -30.2 -31.9 -53.6 -51.5 -91.8 -77.1 -17.7 -11.9 -48.7 -29.3 -62 -34.8 -3.8 -1.6 -8.3 -3.7 -10 -4.6 -1.6 -1 -4.1 -2.1 -5.5 -2.5 -1.4 -0.4 -4.3 -1.6 -6.5 -2.6 -10.2 -4.6 -22.6 -9.2 -41.5 -15.3 -25.9 -8.3 -38.3 -11.5 -64.5 -16.5 -38.1 -7.3 -58.6 -9.3 -95 -9.3 -26 -0.1 -29.7 0.2 -65 4.2 -28.6 3.3 -79.8 15.7 -106 25.7 -22.5 8.6 -40.3 15.7 -44.5 17.9 -2.5 1.3 -9.9 4.9 -16.5 8 -6.6 3.1 -13.8 6.9 -16 8.4 -2.2 1.5 -9.4 5.8 -16 9.5 -11.5 6.5 -23.9 14.7 -39 25.5 -3.8 2.8 -7.6 5.3 -8.4 5.7 -0.8 0.3 -2.2 1.3 -3 2 -0.9 0.8 -6.8 5.6 -13.2 10.6 -55.1 43.8 -101 101.5 -134.5 168.8 -18.2 36.7 -30.1 68 -37.4 98.9 -1.7 6.9 -3.7 15.2 -4.5 18.5 -6.3 25.3 -10.5 64.9 -10.5 97.9 0 35.8 3.9 71.4 11.4 104.6 5.4 23.7 16.8 59.8 25 79.3 2.3 5.6 4.9 11.8 5.6 13.7 3 8.1 19.3 40.6 27.4 55 30.4 53.4 75.3 106 123.6 144.6 21.2 17 47.9 35.3 64.5 44.3 4.4 2.4 8.7 4.9 9.5 5.6 0.8 0.8 10.1 5.6 20.5 10.8 25.5 12.7 59.7 26.5 82 33.1 38 11.1 67.6 16.5 112.5 20.5 15.6 1.4 52.3 1.2 70.5 -0.4z"/>
  <path d="M991 1482.3 c-55.2 -4 -109.7 -16.8 -150 -35 -21.5 -9.8 -26.4 -12.2 -32.5 -15.8 -3.8 -2.3 -11.5 -6.7 -17 -9.8 -32.6 -18.5 -61.1 -40.3 -89 -68.2 -24.2 -24.1 -35.7 -37.8 -54.1 -64.2 -14 -20.1 -18.1 -27 -29.9 -50.8 -13.5 -27.2 -22.3 -50.2 -31.5 -82.7 -6.8 -23.8 -12 -53.1 -12 -67.2 0 -8.5 0.2 -9.6 2.9 -13.8 4.7 -7.4 4.2 -7.3 54.6 -7.3 40.1 0 44.3 0.2 47.2 1.8 4.8 2.6 8.1 9 9.8 19.3 5.9 34.2 12.3 58.5 19.9 75.9 1.3 2.7 3.1 7 4.2 9.5 14.3 33.5 38.8 67.9 69.1 97.1 40.7 39.2 104.3 70.1 161.8 78.4 13.2 2 47.9 3.3 59 2.3 9.5 -0.9 14.4 -3.8 18.2 -10.8 2.3 -4.4 2.4 -4.9 2.1 -25.1 -0.3 -20.2 -0.3 -20.6 -2.9 -24.5 -1.5 -2.3 -4.5 -4.8 -7.2 -6.2 -4.4 -2.2 -6.4 -2.4 -31.9 -3.2 -29.4 -1 -38.9 -2.2 -55.8 -7.1 -25.1 -7.3 -47.4 -18.1 -70.1 -33.8 -54.4 -37.7 -89 -98.7 -97.9 -172.6 -2.3 -19.4 -1.3 -60.9 2 -77.5 0.5 -2.5 1.4 -7.4 2.1 -11 4.3 -23 14.6 -51.1 24.6 -66.9 6.9 -11 8.9 -13.9 19 -26.7 10.9 -14 32.6 -33.7 49.3 -44.8 17.4 -11.7 36.7 -21.1 57 -28 24.3 -8.1 36.8 -10.1 73.2 -11.6 26.5 -1 28.6 -1.5 33.9 -7.9 4.2 -5.1 4.8 -8.4 5 -29.1 0.2 -19.9 -0.2 -22 -5.3 -26.6 -6.2 -5.7 -7.4 -5.9 -32.8 -5.7 -45.6 0.4 -82.3 8 -123.9 25.9 -24.8 10.7 -47 24 -68.1 41 -11.4 9.1 -33.4 30.5 -38.7 37.6 -1.5 2.1 -6.2 8.2 -10.3 13.7 -6.5 8.7 -13.2 18.3 -16.5 23.9 -0.5 0.9 -2.1 3.5 -3.5 5.7 -4.3 6.7 -14.5 27.5 -18.3 37 -7.8 19.9 -11.3 33 -16.7 62.5 -0.6 3.6 -2.1 8.1 -3.2 10.2 -3.8 6.8 -3 6.7 -55.6 7.1 l-47.3 0.5 -3.1 -2.6 c-1.7 -1.4 -3.7 -4.1 -4.4 -5.9 -1.6 -3.7 -1.8 -15.4 -0.5 -23.4 0.5 -3 1.4 -8.8 2.1 -12.9 0.6 -4.1 1.5 -8.8 2 -10.5 0.4 -1.6 2.3 -9.3 4 -17 4 -17.3 7 -27.1 10.8 -35.5 1.6 -3.6 3.7 -9.2 4.7 -12.5 1 -3.3 2.2 -6.4 2.7 -6.9 0.4 -0.6 0.8 -1.7 0.8 -2.6 0 -0.8 2.1 -5.6 4.6 -10.5 2.6 -5 6.6 -13 9 -17.8 2.4 -4.8 6.4 -11.8 8.8 -15.5 2.4 -3.7 5 -8 5.9 -9.7 0.8 -1.6 3.8 -6.1 6.7 -10 2.8 -3.8 7.4 -10.6 10 -15 2.7 -4.5 5.9 -9 7.1 -10 1.2 -1.1 3.9 -4.6 6 -7.7 9.5 -13.9 32.9 -38.4 55.4 -57.8 19.4 -16.8 22.8 -19.5 35.4 -28.6 52.9 -37.8 111.1 -63.2 174.3 -75.8 26.4 -5.3 60.6 -8.6 89.8 -8.6 50.6 0 101 8.1 147.6 23.6 24.1 8 40 14.7 63.4 26.6 66.6 34 118.2 78.6 162.1 139.8 7.2 10 9.6 13.7 19.8 30.3 11.1 18.2 25.8 47.9 31.9 64.7 1.1 3 3.4 9.1 5 13.5 4.1 10.8 9.3 29.1 13.1 45.5 6.9 30.1 6.9 44.4 -0.1 50.7 -1.9 1.7 -5.4 1.8 -81.7 1.5 -77.5 -0.4 -79.7 -0.4 -82.9 -2.4 -1.8 -1.1 -4.4 -4.1 -5.9 -6.6 -2.4 -4.1 -2.8 -6 -3.1 -15 -0.5 -10.9 -0.2 -12.6 5.4 -30.7 12 -39.4 12.8 -58.9 3.7 -88 -6.2 -19.8 -21 -43.3 -37 -58.6 -7.1 -7 -22.3 -18.5 -27.2 -20.7 -2 -0.9 -3.8 -1.9 -4.1 -2.2 -1.1 -1.2 -13 -6.1 -23 -9.4 -17.2 -5.8 -23.8 -6.9 -40.5 -6.9 -19.8 -0.1 -28.8 1.7 -52.5 10.6 -24.5 9.1 -49.6 30.6 -65.7 56.2 -15.5 24.6 -22.3 56.7 -17.8 84.5 2.6 15.6 6.3 26.4 15.8 46 5 10.2 5.1 10.8 5.5 20.7 0.4 9.6 0.3 10.5 -2.2 14.8 -1.5 2.4 -3.7 5 -4.9 5.7 -1.7 1 -19.3 1.4 -77.7 1.8 l-75.5 0.5 -4.6 2.3 c-2.8 1.4 -5.8 3.9 -7.5 6.4 l-2.9 4.1 0 20.6 c0 22.2 0.5 25 5.4 30.5 5.7 6.3 3.7 6.1 69.1 6.1 32.7 0 61.1 0.4 63.1 0.8 4.8 1.1 10 5.5 13.5 11.4 l2.9 4.8 -0.5 18 c-0.2 9.9 -0.4 26.1 -0.4 36 0 16.5 0.2 18.9 2.8 28.9 4.9 19.2 13.3 35.5 27.3 53.2 18.8 23.9 53.5 43.9 84.7 48.9 42.3 6.8 84.8 -6 116.7 -35.1 9.5 -8.7 12.7 -12.2 18.5 -20.4 9.3 -13.3 12.1 -17.9 14.8 -24.5 1.6 -3.9 3.2 -7.9 3.7 -9 1.6 -3.9 4 -13.1 5.6 -21.5 1.9 -9.9 2.1 -36.7 0.4 -47 -0.6 -3.6 -1.1 -11.8 -1.1 -18.3 0 -10.8 0.2 -12.1 2.5 -15.6 4.2 -6.7 8 -8.9 17.5 -10 4.9 -0.5 34.7 -0.9 70.5 -0.8 68.8 0.2 65.1 -0.1 70.9 7 l3.1 3.9 -0.1 14.1 c-0.2 21.5 -4.9 44.3 -17 82.4 -8.2 25.5 -11.2 33.2 -24.4 60.8 -8.7 18.3 -27.7 49.3 -39.4 64.1 -2.2 2.9 -6.8 8.8 -10.1 13 -3.3 4.3 -9.1 11.4 -13 15.8 -3.8 4.5 -8.5 9.9 -10.4 12.1 -10.3 11.9 -46.3 44 -60.1 53.5 -1.9 1.4 -5.8 4.3 -8.5 6.5 -4.8 3.8 -10.2 7.4 -27.7 18.5 -9.2 5.8 -30.2 16.9 -45.3 23.8 -57.1 26.2 -125.3 40.5 -190 40 -12.1 -0.1 -24 -0.3 -26.5 -0.5z"/>
  <path d="M1152.5 1189 c-6.6 -0.7 -15.5 -3.7 -19.9 -6.7 -5.6 -3.7 -15.6 -14.8 -18.5 -20.6 -6.4 -12.6 -8.8 -29.6 -6 -42.9 3 -14.4 12.4 -27.7 24.8 -35.1 10.3 -6.1 14.9 -7.2 30.6 -7.2 15.4 0 18.7 0.9 30 8 11.2 7.1 21.1 21 24 33.6 5.4 24.1 -2.9 48.1 -21.9 62.5 -9.5 7.2 -25.7 10.4 -43.1 8.4z"/>
  <path d="M1148.3 939.1 c-12.6 -2.2 -28 -14.7 -33.8 -27.4 -5.7 -12.4 -6.8 -22.4 -4 -35.9 3 -14.3 10.1 -24.3 22.8 -32.2 10.6 -6.6 16.4 -7.9 31.7 -7.4 12.7 0.4 12.9 0.4 21.1 4.5 9.1 4.6 13.9 8.6 19.8 16.7 7.8 10.7 9.4 16.7 8.9 32.7 -0.4 10.7 -0.8 13.2 -3 17.9 -6.3 13.7 -14.1 21.8 -26.7 27.8 -7 3.4 -7.8 3.5 -20 3.8 -6.9 0.2 -14.5 -0.1 -16.8 -0.5z"/>
 </g>
 <g fill="#28180c">
  <path d="M982 1550.9 c-44.9 -4 -74.5 -9.4 -112.5 -20.5 -22.3 -6.6 -56.5 -20.4 -82 -33.1 -10.4 -5.2 -19.7 -10 -20.5 -10.8 -0.8 -0.7 -5.1 -3.2 -9.5 -5.6 -16.6 -9 -43.3 -27.3 -64.5 -44.3 -48.3 -38.6 -93.2 -91.2 -123.6 -144.6 -8.1 -14.4 -24.4 -46.9 -27.4 -55 -0.7 -1.9 -3.3 -8.1 -5.6 -13.7 -10.4 -24.7 -23.9 -70.2 -28.5 -95.8 -5.5 -31.5 -7.9 -58.8 -7.9 -91.1 0 -36.1 4 -74.7 10.5 -100.9 0.8 -3.3 2.8 -11.6 4.5 -18.5 7.3 -30.9 19.2 -62.2 37.4 -98.9 33.5 -67.3 79.4 -125 134.5 -168.8 6.4 -5 12.3 -9.8 13.2 -10.6 0.8 -0.7 2.2 -1.7 3 -2 0.8 -0.4 4.6 -2.9 8.4 -5.7 15.1 -10.8 27.5 -19 39 -25.5 6.6 -3.7 13.8 -8 16 -9.5 2.2 -1.5 9.4 -5.3 16 -8.4 6.6 -3.1 14 -6.7 16.5 -8 4.2 -2.2 22 -9.3 44.5 -17.9 26.2 -10 77.4 -22.4 106 -25.7 5 -0.6 15.5 -1.8 23.5 -2.7 17.4 -1.9 68 -2.2 86.5 -0.4 28 2.7 64.3 9 88.5 15.2 22 5.6 58.1 17.8 73.5 24.8 2.2 1 5.1 2.2 6.5 2.6 1.4 0.4 3.9 1.5 5.5 2.5 1.7 0.9 6.2 3 10 4.6 13.3 5.5 44.3 22.9 62 34.8 38.2 25.6 61.6 45.2 91.8 77.1 19.7 20.8 32.5 36.1 46.5 55.8 10 14.1 24.1 35.9 29.2 45.2 1.8 3.3 3.6 6.5 4 7 1.1 1.3 18 35.1 18 35.8 0 0.3 1.3 3.5 3 7 6.7 14.6 17.7 45.1 22.8 63.2 7.7 27.4 12.3 52.4 16.4 89 1.8 16.1 1.5 65.5 -0.5 83.5 -2.5 21.8 -3.5 29.9 -4.7 36.3 -0.5 3.1 -1.4 8.1 -1.9 11 -1.3 7.5 -2.1 11 -7.1 32.2 -1.7 7.2 -3.5 14.1 -3.9 15.5 -0.5 1.4 -1.4 4.5 -2.1 7 -0.7 2.5 -2.1 7.2 -3.2 10.5 -1.7 5.2 -3.1 8.6 -8.8 22 -0.4 1.1 -2.2 6.3 -4 11.5 -2.8 8.5 -4.4 11.8 -10.4 22.5 -1.8 3.4 -8.6 18.2 -8.6 19 0 1.5 -5 10.8 -8.8 16.5 -2.4 3.6 -5.3 8.3 -6.4 10.5 -1.2 2.2 -3.8 6.2 -5.8 9 -2.1 2.8 -5.9 9.1 -8.5 13.9 -5 9.2 -7.6 12.8 -21 29.1 -4.4 5.4 -9.8 12.3 -12 15.5 -5.7 8.2 -14.6 17.9 -34.5 37.8 -29.6 29.5 -49.2 45.6 -82.5 67.4 -34.3 22.5 -78.8 43.7 -122 58.3 -9.7 3.3 -33 9.6 -44.5 12 -6.9 1.5 -15.2 3.3 -18.5 4 -13.7 3 -35.9 6 -59 8 -18.4 1.6 -60.6 1.8 -76.5 0.4z m70.5 -72.4 c48.7 -4.5 87.3 -13.2 128 -28.7 22.7 -8.7 53 -23.5 69.3 -33.8 17.5 -11.1 22.9 -14.7 27.7 -18.5 2.7 -2.2 6.6 -5.1 8.5 -6.5 13.8 -9.5 49.8 -41.6 60.1 -53.5 1.9 -2.2 6.6 -7.6 10.4 -12.1 3.9 -4.4 9.7 -11.5 13 -15.8 3.3 -4.2 7.9 -10.1 10.1 -13 11.7 -14.8 30.7 -45.8 39.4 -64.1 13.2 -27.6 16.2 -35.3 24.4 -60.8 11.3 -35.7 16.8 -61 17 -79.4 0.1 -11 0.1 -11.1 -3 -15 -5.8 -7.1 -2.4 -6.8 -67.9 -7 -32.8 -0.1 -62.8 0.3 -67.5 0.8 -9.6 1.1 -13.3 3.3 -17.6 10.1 -2.5 3.9 -2.6 4.6 -2.1 15.2 0.3 6.1 1 17.4 1.7 25.1 1.9 22.4 -1 47.7 -6.9 62 -0.5 1.1 -2.1 5.1 -3.7 9 -2.7 6.6 -5.5 11.2 -14.8 24.5 -5.8 8.2 -9 11.7 -18.5 20.4 -20 18.3 -40.4 28.5 -69.5 34.7 -12.6 2.7 -37.6 2.9 -53 0.4 -31.4 -5 -66 -25 -84.9 -48.9 -14 -17.7 -22.4 -34 -27.3 -53.2 -2.7 -10.3 -2.9 -12.1 -2.9 -31.9 0 -11.5 0.3 -27.7 0.5 -36 l0.5 -15 -2.9 -4.8 c-3.5 -5.9 -8.7 -10.3 -13.5 -11.4 -2 -0.4 -30.4 -0.8 -63.1 -0.8 -65.4 0 -63.4 0.2 -69.1 -6.1 -5 -5.6 -5.4 -8.1 -5.4 -33.5 l0 -23.6 2.9 -4.1 c1.7 -2.5 4.7 -5 7.5 -6.4 l4.6 -2.3 75.5 -0.5 c58.4 -0.4 76 -0.8 77.7 -1.8 1.2 -0.7 3.4 -3.3 4.9 -5.8 2.4 -4 2.6 -5.3 2.2 -11.7 -0.4 -6.1 -1.3 -8.9 -5.5 -17.7 -12.8 -26.5 -17.3 -43.6 -17.3 -66.3 0 -25.6 6.8 -50.4 19.3 -70.2 16.1 -25.6 41.2 -47.1 65.7 -56.2 24.7 -9.2 32.4 -10.7 55.5 -10.7 19.9 0.1 25.4 1 43.5 7 10 3.3 21.9 8.2 23 9.4 0.3 0.3 2.1 1.3 4.1 2.2 4.9 2.2 20.1 13.7 27.2 20.7 20.9 20 36.5 48.8 41.1 75.4 4.4 25.4 2.6 42.9 -7.8 77.2 -5.5 17.8 -5.9 20 -5.4 27.9 0.6 8.6 3.8 15.2 9 18.4 3.2 2 5.2 2 78.8 2.2 41.5 0.1 76 0.1 76.5 0 0.6 -0.1 1.3 -0.2 1.7 -0.1 1.7 0.2 6.1 -7.2 6.5 -11.3 0.7 -6 -1.2 -19.1 -5.1 -35.9 -5.6 -23.7 -7.8 -30.7 -17.8 -57.7 -6.3 -17 -20.9 -46.6 -31.9 -64.7 -10.2 -16.6 -12.6 -20.3 -19.8 -30.3 -43.9 -61.2 -95.5 -105.8 -162.1 -139.8 -54.3 -27.8 -105.5 -42.2 -172.5 -48.7 -31.4 -3.1 -64.5 -1.7 -107.3 4.5 -23.1 3.3 -58.7 12.5 -83 21.6 -35.6 13.2 -74.1 33.8 -106.3 56.8 -12.6 9.1 -16 11.8 -35.4 28.6 -22.5 19.4 -45.9 43.9 -55.4 57.8 -2.1 3.1 -4.8 6.6 -6 7.7 -1.2 1 -4.4 5.5 -7.1 10 -2.6 4.4 -7.2 11.2 -10 15 -2.9 3.9 -5.9 8.4 -6.7 10 -0.9 1.7 -3.5 6 -5.9 9.7 -2.4 3.7 -6.4 10.7 -8.8 15.5 -2.4 4.8 -6.4 12.8 -9 17.8 -2.5 4.9 -4.6 9.7 -4.6 10.5 0 0.9 -0.4 2 -0.8 2.5 -0.5 0.6 -1.7 3.7 -2.7 7 -1 3.3 -3.1 8.9 -4.7 12.5 -3.8 8.4 -6.8 18.2 -10.8 35.5 -1.7 7.7 -3.6 15.4 -4 17 -0.5 1.7 -1.4 6.4 -2 10.5 -0.7 4.1 -1.6 9.9 -2.1 12.9 -1.9 11.8 -0.7 18.3 4.6 23.1 l2.7 2.5 45.1 -0.4 c50.1 -0.4 48.7 -0.2 52.5 -7 1.1 -2 2.6 -6.5 3.2 -10.1 5.4 -29.5 8.9 -42.6 16.7 -62.5 3.8 -9.5 14 -30.3 18.3 -37 1.4 -2.2 3 -4.8 3.5 -5.7 3.3 -5.6 10 -15.2 16.5 -23.9 4.1 -5.5 8.8 -11.6 10.3 -13.7 5.3 -7.1 27.3 -28.5 38.7 -37.6 26.9 -21.6 55 -37.1 90.1 -49.6 33.7 -12.1 63.9 -17 104.9 -17.3 25.4 -0.2 26.7 -0.1 30.5 2 5 2.6 8 5.8 9.8 10.3 1.2 2.9 1.4 7.5 0.8 26 -0.6 21.2 -0.8 22.7 -3 26.3 -2.3 3.8 -7 7.8 -10.6 9.1 -1.1 0.4 -12.5 1.1 -25.5 1.6 -36.2 1.5 -48.7 3.5 -73 11.6 -28.3 9.6 -54.9 24.3 -75.5 42 -17.7 15.2 -26 24.1 -40.1 42.9 -15.8 21 -27.9 49.5 -33.9 79.5 -4.8 23.9 -5.5 31.3 -5.5 54.9 -0.1 29 2.7 49.2 10.5 75.8 18.1 62.5 54.5 108.8 109.8 139.7 17 9.5 30.2 15.1 48.7 20.5 16.9 4.9 26.4 6.1 55.8 7.1 25.5 0.8 27.5 1 31.9 3.2 2.7 1.4 5.7 3.9 7.2 6.2 2.6 3.9 2.6 4 2.9 27.5 0.3 23.3 0.2 23.7 -2.1 28.1 -3.8 7.1 -8.6 9.8 -18.7 10.8 -11.1 1.2 -50.5 -0.3 -64.5 -2.3 -57.3 -8.2 -121.1 -39.2 -161.8 -78.4 -30.3 -29.2 -54.8 -63.6 -69.1 -97.1 -1.1 -2.5 -2.9 -6.8 -4.2 -9.5 -7.6 -17.4 -14 -41.7 -19.9 -75.9 -1.7 -10.3 -5 -16.7 -9.8 -19.3 -2.9 -1.6 -6.9 -1.8 -44.2 -1.8 -47 0.1 -47 0.1 -51.6 7.3 -3.7 5.9 -3.8 11.7 -0.5 31.4 4.7 27.3 9 44 18.5 71.8 8.1 23.8 11.7 32.5 22.6 54.5 11.8 23.8 15.9 30.7 29.9 50.8 18.4 26.4 29.9 40.1 54.1 64.2 27.9 27.9 56.4 49.7 89 68.2 5.5 3.1 13.2 7.5 17 9.8 6.1 3.6 11 6 32.5 15.8 40.3 18.2 94.8 31 150 35 12.8 1 44.4 0.5 58.5 -0.8z m127.7 -294.7 c19.2 -5.8 35.8 -29.3 35.8 -50.5 0 -17.5 -10.5 -36.3 -25.5 -45.8 -10.6 -6.7 -15 -8 -27 -8 -12.4 0 -17.9 1.5 -27.6 7.2 -15.6 9.3 -25.9 27.5 -25.9 45.6 0 7 3.2 18.7 7.1 26.4 2.9 5.8 12.9 16.9 18.5 20.6 10.8 7.3 29.4 9.1 44.6 4.5z m2.1 -251.1 c12.4 -5.9 20.2 -14.1 26.5 -27.7 3 -6.6 4.2 -22.2 2.2 -28.6 -4.7 -14.8 -14 -25.7 -27.7 -32.6 -7.6 -3.8 -9 -4.1 -18.1 -4.6 -12.2 -0.6 -18.7 1.1 -28.9 7.4 -12.9 8 -19.8 17.9 -22.9 32.9 -1.4 6.7 -1.5 9.1 -0.5 14.8 2.7 16 13.2 30.5 27.5 37.6 8.4 4.3 12.5 5.1 24.9 4.6 8.7 -0.3 10.6 -0.7 17 -3.8z"/>
 </g>
</svg>