<?xml version="1.0" encoding="UTF-8" standalone="no"?>
<!DOCTYPE svg PUBLIC "-//W3C//DTD SVG 1.1//EN" "http://www.w3.org/Graphics/SVG/1.1/DTD/svg11.dtd">
<svg xmlns="http://www.w3.org/2000/svg" version="1.1" viewBox="0.00 0.00 1024.00 1024.00">
<g stroke-width="2.00" fill="none" stroke-linecap="butt">
<path stroke="#747473" vector-effect="non-scaling-stroke" d="
  M 309.32 682.07
  C 319.68 694.31 330.91 706.16 343.22 716.31
  C 407.61 769.45 490.75 788.36 572.09 768.96
  C 632.08 754.66 683.50 718.50 719.66 669.81
  C 725.07 662.53 730.08 654.07 735.11 646.02
  C 739.99 638.21 743.54 629.95 747.54 621.64
  C 752.19 611.98 756.51 600.23 759.33 590.39
  C 771.60 547.67 773.26 502.56 762.38 459.89
  C 752.70 421.92 733.66 386.34 708.16 356.82
  C 617.70 252.08 463.45 235.24 351.61 317.59
  C 313.04 345.99 284.34 384.94 266.53 429.16
  C 250.09 469.97 246.04 513.62 252.40 556.88
  C 258.93 601.31 280.30 647.77 309.32 682.07"
/>
<path stroke="#747473" vector-effect="non-scaling-stroke" d="
  M 729.87 485.78
  C 720.43 431.14 687.77 378.55 642.43 346.32
  C 604.73 319.51 563.07 305.24 516.99 302.62
  C 505.72 301.98 494.38 302.87 483.06 304.12
  C 401.50 313.11 328.89 368.27 299.85 445.32
  C 294.84 458.59 291.60 472.84 289.66 486.99
  Q 288.86 492.78 292.93 496.34
  A 1.42 1.40 -24.1 0 0 293.81 496.67
  Q 314.87 497.03 335.95 496.24
  Q 341.53 496.03 342.52 490.24
  C 345.79 471.10 351.46 452.69 362.76 434.59
  C 389.56 391.67 434.56 367.21 484.72 364.62
  Q 498.98 363.88 505.68 364.57
  Q 510.46 365.07 512.67 368.93
  C 515.40 373.70 513.90 386.64 513.64 392.33
  C 513.37 398.19 510.27 402.02 504.16 402.39
  C 492.67 403.09 480.30 403.06 469.51 405.49
  C 429.92 414.40 395.16 444.18 384.79 484.25
  Q 375.99 518.26 384.87 552.21
  Q 398.89 605.84 448.78 629.44
  Q 460.82 635.14 473.81 637.50
  C 482.16 639.02 492.46 638.97 501.75 639.48
  C 508.94 639.87 513.84 641.93 513.83 649.75
  Q 513.83 658.53 513.72 667.29
  C 513.62 675.63 508.09 677.94 500.50 678.00
  Q 486.42 678.11 476.01 677.25
  C 462.19 676.10 448.76 672.17 435.60 666.81
  C 387.86 647.34 352.76 604.44 344.19 553.30
  C 343.22 547.55 342.44 536.34 335.41 536.06
  Q 316.22 535.29 297.00 536.14
  C 288.50 536.52 289.18 544.93 290.13 550.84
  Q 304.36 639.44 374.20 693.31
  C 414.45 724.36 465.99 741.60 517.49 739.19
  Q 602.85 735.20 664.03 676.92
  C 698.26 644.31 720.38 602.16 728.77 555.75
  C 729.88 549.60 732.67 536.48 722.33 536.08
  Q 692.05 534.88 661.77 536.08
  C 656.29 536.30 651.57 538.74 651.67 544.95
  C 651.82 553.56 652.95 563.30 652.72 570.70
  C 651.40 612.30 616.36 639.75 575.80 637.48
  C 549.83 636.03 526.68 619.44 516.00 596.03
  C 512.23 587.77 511.00 581.48 510.99 571.77
  Q 510.98 559.64 511.07 547.51
  C 511.11 540.50 506.48 535.90 499.49 535.89
  Q 471.66 535.82 443.83 535.37
  C 437.04 535.26 434.82 531.10 434.58 524.67
  Q 434.17 514.24 434.25 503.78
  Q 434.26 503.27 434.56 502.86
  C 436.75 499.94 439.95 496.74 443.89 496.75
  Q 478.14 496.87 512.38 496.08
  C 515.78 496.01 518.40 496.50 520.48 493.54
  C 523.18 489.69 521.81 484.12 519.69 480.05
  C 516.50 473.93 513.21 465.60 511.88 458.72
  C 502.30 409.19 545.84 368.18 594.82 377.57
  C 630.90 384.48 656.06 418.07 651.59 454.75
  C 650.66 462.37 647.75 471.23 645.49 479.26
  C 643.80 485.23 643.82 496.10 652.75 496.29
  Q 675.36 496.77 724.18 496.76
  C 729.78 496.76 730.59 490.00 729.87 485.78"
/>
<path stroke="#747473" vector-effect="non-scaling-stroke" d="
  M 605.2551 445.7602
  A 24.17 23.87 4.2 0 0 582.8982 420.1841
  A 24.17 23.87 4.2 0 0 557.0449 442.2198
  A 24.17 23.87 4.2 0 0 579.4018 467.7959
  A 24.17 23.87 4.2 0 0 605.2551 445.7602"
/>
<path stroke="#747473" vector-effect="non-scaling-stroke" d="
  M 584.5061 592.5405
  A 26.28 25.65 83.3 0 0 606.9148 563.4474
  A 26.28 25.65 83.3 0 0 578.3739 540.3395
  A 26.28 25.65 83.3 0 0 555.9652 569.4326
  A 26.28 25.65 83.3 0 0 584.5061 592.5405"
/>
</g>
<path fill="#e8e7e6" d="
  M 0.00 0.00
  L 1024.00 0.00
  L 1024.00 1024.00
  L 0.00 1024.00
  L 0.00 0.00
  Z
  M 309.32 682.07
  C 319.68 694.31 330.91 706.16 343.22 716.31
  C 407.61 769.45 490.75 788.36 572.09 768.96
  C 632.08 754.66 683.50 718.50 719.66 669.81
  C 725.07 662.53 730.08 654.07 735.11 646.02
  C 739.99 638.21 743.54 629.95 747.54 621.64
  C 752.19 611.98 756.51 600.23 759.33 590.39
  C 771.60 547.67 773.26 502.56 762.38 459.89
  C 752.70 421.92 733.66 386.34 708.16 356.82
  C 617.70 252.08 463.45 235.24 351.61 317.59
  C 313.04 345.99 284.34 384.94 266.53 429.16
  C 250.09 469.97 246.04 513.62 252.40 556.88
  C 258.93 601.31 280.30 647.77 309.32 682.07
  Z"
/>
<path fill="#000000" d="
  M 309.32 682.07
  C 280.30 647.77 258.93 601.31 252.40 556.88
  C 246.04 513.62 250.09 469.97 266.53 429.16
  C 284.34 384.94 313.04 345.99 351.61 317.59
  C 463.45 235.24 617.70 252.08 708.16 356.82
  C 733.66 386.34 752.70 421.92 762.38 459.89
  C 773.26 502.56 771.60 547.67 759.33 590.39
  C 756.51 600.23 752.19 611.98 747.54 621.64
  C 743.54 629.95 739.99 638.21 735.11 646.02
  C 730.08 654.07 725.07 662.53 719.66 669.81
  C 683.50 718.50 632.08 754.66 572.09 768.96
  C 490.75 788.36 407.61 769.45 343.22 716.31
  C 330.91 706.16 319.68 694.31 309.32 682.07
  Z
  M 729.87 485.78
  C 720.43 431.14 687.77 378.55 642.43 346.32
  C 604.73 319.51 563.07 305.24 516.99 302.62
  C 505.72 301.98 494.38 302.87 483.06 304.12
  C 401.50 313.11 328.89 368.27 299.85 445.32
  C 294.84 458.59 291.60 472.84 289.66 486.99
  Q 288.86 492.78 292.93 496.34
  A 1.42 1.40 -24.1 0 0 293.81 496.67
  Q 314.87 497.03 335.95 496.24
  Q 341.53 496.03 342.52 490.24
  C 345.79 471.10 351.46 452.69 362.76 434.59
  C 389.56 391.67 434.56 367.21 484.72 364.62
  Q 498.98 363.88 505.68 364.57
  Q 510.46 365.07 512.67 368.93
  C 515.40 373.70 513.90 386.64 513.64 392.33
  C 513.37 398.19 510.27 402.02 504.16 402.39
  C 492.67 403.09 480.30 403.06 469.51 405.49
  C 429.92 414.40 395.16 444.18 384.79 484.25
  Q 375.99 518.26 384.87 552.21
  Q 398.89 605.84 448.78 629.44
  Q 460.82 635.14 473.81 637.50
  C 482.16 639.02 492.46 638.97 501.75 639.48
  C 508.94 639.87 513.84 641.93 513.83 649.75
  Q 513.83 658.53 513.72 667.29
  C 513.62 675.63 508.09 677.94 500.50 678.00
  Q 486.42 678.11 476.01 677.25
  C 462.19 676.10 448.76 672.17 435.60 666.81
  C 387.86 647.34 352.76 604.44 344.19 553.30
  C 343.22 547.55 342.44 536.34 335.41 536.06
  Q 316.22 535.29 297.00 536.14
  C 288.50 536.52 289.18 544.93 290.13 550.84
  Q 304.36 639.44 374.20 693.31
  C 414.45 724.36 465.99 741.60 517.49 739.19
  Q 602.85 735.20 664.03 676.92
  C 698.26 644.31 720.38 602.16 728.77 555.75
  C 729.88 549.60 732.67 536.48 722.33 536.08
  Q 692.05 534.88 661.77 536.08
  C 656.29 536.30 651.57 538.74 651.67 544.95
  C 651.82 553.56 652.95 563.30 652.72 570.70
  C 651.40 612.30 616.36 639.75 575.80 637.48
  C 549.83 636.03 526.68 619.44 516.00 596.03
  C 512.23 587.77 511.00 581.48 510.99 571.77
  Q 510.98 559.64 511.07 547.51
  C 511.11 540.50 506.48 535.90 499.49 535.89
  Q 471.66 535.82 443.83 535.37
  C 437.04 535.26 434.82 531.10 434.58 524.67
  Q 434.17 514.24 434.25 503.78
  Q 434.26 503.27 434.56 502.86
  C 436.75 499.94 439.95 496.74 443.89 496.75
  Q 478.14 496.87 512.38 496.08
  C 515.78 496.01 518.40 496.50 520.48 493.54
  C 523.18 489.69 521.81 484.12 519.69 480.05
  C 516.50 473.93 513.21 465.60 511.88 458.72
  C 502.30 409.19 545.84 368.18 594.82 377.57
  C 630.90 384.48 656.06 418.07 651.59 454.75
  C 650.66 462.37 647.75 471.23 645.49 479.26
  C 643.80 485.23 643.82 496.10 652.75 496.29
  Q 675.36 496.77 724.18 496.76
  C 729.78 496.76 730.59 490.00 729.87 485.78
  Z
  M 605.2551 445.7602
  A 24.17 23.87 4.2 0 0 582.8982 420.1841
  A 24.17 23.87 4.2 0 0 557.0449 442.2198
  A 24.17 23.87 4.2 0 0 579.4018 467.7959
  A 24.17 23.87 4.2 0 0 605.2551 445.7602
  Z
  M 584.5061 592.5405
  A 26.28 25.65 83.3 0 0 606.9148 563.4474
  A 26.28 25.65 83.3 0 0 578.3739 540.3395
  A 26.28 25.65 83.3 0 0 555.9652 569.4326
  A 26.28 25.65 83.3 0 0 584.5061 592.5405
  Z"
/>
<path fill="#e8e7e6" d="
  M 642.43 346.32
  C 687.77 378.55 720.43 431.14 729.87 485.78
  C 730.59 490.00 729.78 496.76 724.18 496.76
  Q 675.36 496.77 652.75 496.29
  C 643.82 496.10 643.80 485.23 645.49 479.26
  C 647.75 471.23 650.66 462.37 651.59 454.75
  C 656.06 418.07 630.90 384.48 594.82 377.57
  C 545.84 368.18 502.30 409.19 511.88 458.72
  C 513.21 465.60 516.50 473.93 519.69 480.05
  C 521.81 484.12 523.18 489.69 520.48 493.54
  C 518.40 496.50 515.78 496.01 512.38 496.08
  Q 478.14 496.87 443.89 496.75
  C 439.95 496.74 436.75 499.94 434.56 502.86
  Q 434.26 503.27 434.25 503.78
  Q 434.17 514.24 434.58 524.67
  C 434.82 531.10 437.04 535.26 443.83 535.37
  Q 471.66 535.82 499.49 535.89
  C 506.48 535.90 511.11 540.50 511.07 547.51
  Q 510.98 559.64 510.99 571.77
  C 511.00 581.48 512.23 587.77 516.00 596.03
  C 526.68 619.44 549.83 636.03 575.80 637.48
  C 616.36 639.75 651.40 612.30 652.72 570.70
  C 652.95 563.30 651.82 553.56 651.67 544.95
  C 651.57 538.74 656.29 536.30 661.77 536.08
  Q 692.05 534.88 722.33 536.08
  C 732.67 536.48 729.88 549.60 728.77 555.75
  C 720.38 602.16 698.26 644.31 664.03 676.92
  Q 602.85 735.20 517.49 739.19
  C 465.99 741.60 414.45 724.36 374.20 693.31
  Q 304.36 639.44 290.13 550.84
  C 289.18 544.93 288.50 536.52 297.00 536.14
  Q 316.22 535.29 335.41 536.06
  C 342.44 536.34 343.22 547.55 344.19 553.30
  C 352.76 604.44 387.86 647.34 435.60 666.81
  C 448.76 672.17 462.19 676.10 476.01 677.25
  Q 486.42 678.11 500.50 678.00
  C 508.09 677.94 513.62 675.63 513.72 667.29
  Q 513.83 658.53 513.83 649.75
  C 513.84 641.93 508.94 639.87 501.75 639.48
  C 492.46 638.97 482.16 639.02 473.81 637.50
  Q 460.82 635.14 448.78 629.44
  Q 398.89 605.84 384.87 552.21
  Q 375.99 518.26 384.79 484.25
  C 395.16 444.18 429.92 414.40 469.51 405.49
  C 480.30 403.06 492.67 403.09 504.16 402.39
  C 510.27 402.02 513.37 398.19 513.64 392.33
  C 513.90 386.64 515.40 373.70 512.67 368.93
  Q 510.46 365.07 505.68 364.57
  Q 498.98 363.88 484.72 364.62
  C 434.56 367.21 389.56 391.67 362.76 434.59
  C 351.46 452.69 345.79 471.10 342.52 490.24
  Q 341.53 496.03 335.95 496.24
  Q 314.87 497.03 293.81 496.67
  A 1.42 1.40 -24.1 0 1 292.93 496.34
  Q 288.86 492.78 289.66 486.99
  C 291.60 472.84 294.84 458.59 299.85 445.32
  C 328.89 368.27 401.50 313.11 483.06 304.12
  C 494.38 302.87 505.72 301.98 516.99 302.62
  C 563.07 305.24 604.73 319.51 642.43 346.32
  Z"
/>
<ellipse fill="#e8e7e6" cx="0.00" cy="0.00" transform="translate(581.15,443.99) rotate(4.2)" rx="24.17" ry="23.87"/>
<ellipse fill="#e8e7e6" cx="0.00" cy="0.00" transform="translate(581.44,566.44) rotate(83.3)" rx="26.28" ry="25.65"/>
</svg>
